<?xml version="1.0" encoding="UTF-8"?>
<svg width="400" height="400" viewBox="0 0 400 400" xmlns="http://www.w3.org/2000/svg">
    <!-- 大腦輪廓 -->
    <path d="M200 50 C300 50 350 150 350 200 C350 300 250 350 200 350 C150 350 50 300 50 200 C50 150 100 50 200 50" 
          fill="none" stroke="#e67e5a" stroke-width="8"/>
    
    <!-- 神經網絡線條 -->
    <path d="M100 150 Q200 200 300 150" fill="none" stroke="#e67e5a" stroke-width="4" stroke-dasharray="5,5"/>
    <path d="M100 200 Q200 250 300 200" fill="none" stroke="#e67e5a" stroke-width="4" stroke-dasharray="5,5"/>
    <path d="M100 250 Q200 300 300 250" fill="none" stroke="#e67e5a" stroke-width="4" stroke-dasharray="5,5"/>
    
    <!-- 手機圖示 -->
    <rect x="160" y="180" width="80" height="140" rx="10" fill="none" stroke="#e67e5a" stroke-width="4"/>
    <rect x="170" y="190" width="60" height="100" rx="5" fill="#e67e5a" fill-opacity="0.2"/>
    <circle cx="200" cy="305" r="8" fill="none" stroke="#e67e5a" stroke-width="2"/>
    
    <!-- 消耗效果 -->
    <circle cx="200" cy="200" r="120" fill="none" stroke="#e67e5a" stroke-width="2" stroke-dasharray="10,10">
        <animate attributeName="r" values="120;140;120" dur="3s" repeatCount="indefinite"/>
        <animate attributeName="stroke-opacity" values="1;0;1" dur="3s" repeatCount="indefinite"/>
    </circle>
</svg> 