<?xml version="1.0" encoding="UTF-8"?>
<svg id="Layer_1" xmlns="http://www.w3.org/2000/svg" xmlns:xlink="http://www.w3.org/1999/xlink" version="1.1" viewBox="0 0 1024 1024">
  <!-- Generator: Adobe Illustrator 29.3.0, SVG Export Plug-In . SVG Version: 2.1.0 Build 146)  -->
  <defs>
    <style>
      .st0 {
        fill: #f47051;
      }

      .st1 {
        fill: #fafafa;
      }

      .st2 {
        fill: #5d656a;
      }
    </style>
  </defs>
  <path class="st2" d="M494.8,71.7c4.2-.7,9.2-.4,13.5-.4,21.7.4,42,5.6,60,17.8,11.5-.2,22.5-.4,33.9,1.8,16.8,3.2,34.5,10.7,47.4,22.3,3.9,3.5,6.7,8.2,10.8,11.4,3.2,2.5,7.8,3.7,11.5,5.5,4.8,2.3,9.4,5.2,13.7,8.3,9,6.5,16.7,14.6,21.7,24.6,1.9,3.9,3.4,8.4,6,11.9,2.4,3.1,5.6,5.7,8.4,8.5,3.5,3.5,6.5,7.5,9.2,11.6,11.4,16.9,17.5,37.4,13.5,57.7,8.8,16.9,12.6,35.3,10.3,54.3-2.4,19.5-12.1,33.4-27.2,45.3-1.2,6.5-2.5,13.1-4.3,19.5-8.7,31-26,59.3-54.7,75.3-34.5,19.3-74.7,16.1-111.4,5.9-.9,2.3-1.6,4.6-2.3,7s-1.2,4.7-1.7,7.1-.8,4.8-1,7.3c-.2,2.4-.4,4.9-.4,7.3-.2,14.9,3.2,30.8,14.1,41.7,12.5,12.6,27.7,13,44.4,13h23.2c2-1.9,4.5-3.5,7.3-3.5s5.6,2.3,7.9,4.7c3.8-.8,7.4-1.7,11.2-2.6,0-3.7-.9-10.2,1.9-12.9,2.6-2.5,8.3-1.7,11.6-1.6.3-11.8-1.3-6-6-13.3,0-.2-.2-.3-.3-.5-7.1-.1-25.2,2-30.2-2.5-1.7-1.5-2.5-3.6-2.5-5.9s.7-4.6,2.4-6.3c5.1-4.9,23.3-3.1,30.4-3,1.1-1.1,2.1-2.4,3.3-3.4,3.1-2.6,7.6-4,11.6-3.5,4.8.6,8,3.3,11,6.9,7.6,0,25.7-2,31.5,2.5,2,1.5,2.8,3.7,3,6.2.2,2.2-.2,4.3-1.8,6-4.7,4.9-24.7,3-31.9,3,0,.2-.3.4-.4.6-.2.3-.4.5-.6.8-.9,1.3-1.4,1.6-2.9,2.3-1.1.5-1.8.8-2.7,1.7-1,2.6-.5,5.8-.4,8.5,3.4,0,9.4-.9,11.9,1.9,2.5,2.7,1.6,9.5,1.6,13,12.3,4.5,26,6.5,35.7,16s12.2,22.4,12.2,35.5v1.5c-.2,5.3,3.8,4.8,6.4,8.1,1.2,1.5,1.2,3,.8,4.8-.4,2.3-1.6,4.4-3.6,5.6-2.8,1.7-34.4,1.8-38.4.6-1.9-.6-3.7-2-4.6-3.8-.9-1.8-1-4.6-.2-6.5,1.2-2.8,3.9-3.8,6.5-4.9-.2-3.5,0-7.8-2.2-10.7-1.6-2.2-4.1-2.9-6.7-3-7.6-.5-15.5,2.2-23.1,2.6-9.6.5-24.9-2.4-34.8-3.8-.6,3-1.6,7.1-4.3,8.8-3.6,2.3-10.6-1.5-14.7-2-4.2-.5-8.7,0-12.8,0-13.4,0-27.4.8-40.6-1.4-37.7-6.3-60.2-28.7-72.3-64.2-4.2-12.4-6.9-25.4-11.9-37.5-6-14.9-14.9-28.1-24.2-41.1-1.8.3-3.7.5-5.6.7-29.2,2.8-66.8-3.4-89.8-22.6-13.6-11.4-20.7-26.2-22.3-43.7-7.9,1.4-15.8,2.3-23.8,2.7h-4.6c-1.5,0-3.1,0-4.6-.2-1.5,0-3.1-.2-4.6-.4-1.5-.2-3-.4-4.6-.6-1.5-.2-3-.5-4.5-.8s-3-.7-4.5-1.1-3-.8-4.4-1.3c-1.5-.5-2.9-1-4.3-1.5-4.5-1.7-8.9-4-13.5-5.6-4.8-1.7-10-2.4-14.9-3.8-13.1-3.7-25.9-11-35.8-20.3-10.3-9.7-18.8-23.3-21.6-37.2-.9-4.6-.9-9.3-1.9-13.9-2-9-4.8-16.9-5-26.3-.6-20.3,5.5-35.5,19.2-50.2.9-7.4,2-14.6,4.8-21.6,9.5-23.7,29.3-38.6,52.2-48.3,9.9-20.4,24.1-32.3,45.6-39.4,4.4-1.4,9.3-1.6,13.6-3.2,4.4-1.7,8.7-5.4,12.6-8,3.3-2.2,6.9-4.1,10.5-5.8,1.5-.7,3-1.3,4.6-2,1.5-.6,3.1-1.2,4.7-1.7s3.2-1,4.7-1.4c1.6-.4,3.2-.8,4.8-1.1,1.6-.3,3.2-.6,4.9-.9,1.6-.2,3.3-.4,4.9-.6,1.6,0,3.3-.2,4.9-.3h5c4.5,0,9.2,1.1,13.6.6,4.6-.4,9.3-2.3,13.8-3.3,13.4-3.1,27.1-3.2,40.1,1.5,10.7-4,21.8-5.7,33.2-6.6v-.2Z"/>
  <path class="st1" d="M461.3,92.4c27.8-9.8,62.1-11.7,89.3,1.4,2.6,1.2,5.1,2.6,7.5,4.2,2.4,1.5,4.7,3.2,7,5.1,27-2.6,53.1,1.7,74.5,19.4,4.8,4,8.1,10.2,13,13.6,3.1,2.1,7.4,3.4,10.9,4.8,1.8.7,3.5,1.5,5.2,2.4s3.4,1.8,5,2.9c1.6,1,3.2,2.1,4.8,3.3,1.5,1.2,3,2.4,4.5,3.7,5.9,5.2,11.7,12.2,14.7,19.6,1.3,3.1,2.2,7.1,4.2,9.8,2.8,3.9,7.5,6.7,10.8,10.2,10.7,11.3,18.5,27.4,19.9,43,.6,6.5,0,12.7-1.6,19.1,7.8,14.8,11.8,28.3,11.5,45.2-1.4,15.6-5.9,28.9-18.3,39.2-2.5,2.1-5.2,4-7.9,6-.6,2.7-1.2,5.4-1.9,8.1-5.2,4.5-11.4,8.3-17.4,11.6-23.9,13.2-50.3,19.1-77.4,19.3-15.6.1-30.4-1.2-45.7,2.9-15.7,4.3-27.8,13.1-41.7,21-26.9,15.4-61.1,22.5-92,20.3-23.3-1.6-51.1-8.2-66.9-26.7-.5-.6-1-1.2-1.5-1.9s-1-1.3-1.4-2c-.5-.7-.9-1.3-1.3-2s-.8-1.4-1.2-2.1c-.4-.7-.8-1.4-1.1-2.1-.4-.7-.7-1.5-1-2.2s-.6-1.5-.9-2.2c-.3-.8-.5-1.5-.8-2.3-.2-.8-.5-1.5-.7-2.3s-.4-1.6-.6-2.4-.3-1.6-.4-2.4-.2-1.6-.3-2.4-.2-1.6-.2-2.4v-4.8c0-.8,0-1.6.2-2.4,1.6-19.9,13.9-39.2,28.6-52.2,18.4-17.5,55-26.5,78.6-35.8,13.4-5.3,26.3-12,40.2-16,13.6-3.9,28.6-4.4,41.7-9.8,13.5-5.6,24.3-17.8,29.8-31.1,4.6-11.2,6.3-26.8,1.4-38.2-.7-1.7-1.7-3.7-3.5-4.4-3.1,2.8,0,14,.4,17.9.3,3.1.2,6.2,0,9.3,0,1.7-.4,3.3-.7,5s-.7,3.3-1.2,4.9c-.5,1.6-1.1,3.2-1.8,4.7s-1.4,3-2.3,4.5c-5.4,9.3-14.3,17.6-24,22.2-15.1,7.3-32.9,5.2-48.8,10.4-12.1,4-23.4,10-35.2,14.6-12.1,4.7-24.6,8.2-36.7,12.9-6.6,2.5-13,6.8-19.7,8.5-.2,0-.4,0-.5.1-8.6-2-16.8-10.5-21.8-17.6-8.1-11.6-8.8-27.4-3.9-40.5,1.4-3.8,4.5-8.1,5-12.1.2-1.3.1-2-.7-3.1-1.7.2-2.8,1.1-3.9,2.4-1.5,1.8-2.2,4.1-3,6.2-3.8,9.5-6.1,18.7-5.2,29,0,.7.2,1.5.3,2.2.1.7.2,1.4.4,2.2.1.7.3,1.4.5,2.1s.4,1.4.6,2.1.4,1.4.7,2.1c.2.7.5,1.4.8,2.1s.6,1.4.9,2c.3.7.6,1.3.9,2s.7,1.3,1,1.9c.4.6.7,1.3,1.1,1.9s.8,1.2,1.2,1.8c.4.6.9,1.2,1.3,1.8.4.6.9,1.1,1.4,1.7s1,1.1,1.5,1.6,1,1.1,1.5,1.6,1.1,1,1.6,1.5c3.4,3.1,7.2,5.6,10.7,8.6-7.2,4.8-13.9,9.4-20.1,15.4-3.5,3.7-6.9,7.3-9.9,11.3-2.9,4-5.4,8.2-8.6,12-8.8,3.4-28.2-1.8-36.7-5.3-13-5.4-24.2-15.9-29.6-29-4.9-8.7-9.8-13.6-18.1-19.1-1.8-1.2-3.8-2.7-5.9-3.2-1.4-.3-2.2,0-3.4.7-.4,1.2-.5,1.4.1,2.6,1.2,2.4,9.1,6.4,11.7,8.9,3.2,3,5.8,6.7,8,10.5-5.3.9-10.9,1-16.2,1.3-19.5,1.3-38.9,1.5-56.5-8.2-.4-7.8-3-14-4.4-21.5-3.3-16.5.5-34.8,12-47.4,2.1-2.3,4.4-4.3,6.6-6.4,1.1-19.8,6.2-32.9,21.3-46.4,9.9-8.8,20.8-13.6,32.7-18.8,6.9-16.7,15.7-27.4,32.8-34.4,3.8-1.5,7.7-2.9,11.7-3.7,3.6-.7,7.6-1,11-2.3,3-1.2,5.2-4.1,7.8-6,9.8-6.9,20.8-11.8,32.7-13.8,2.8-.5,5.7-.8,8.5-1,2.9-.2,5.7-.2,8.6,0,4.6.2,9.8,1.4,14.4.5,3.4-.6,6.5-2.1,9.8-3,13.1-3.2,26.7-3.9,39.3,1.5.4.2.8.3,1.1.5l-.7-.2Z"/>
  <path class="st0" d="M390.4,313.4c52.1,4.4,93.6-18.7,144.1-20.7,6-.2,12.2-.8,18.2-.1-.2,0-.3.1-.5.2-6.1,1.8-13.8,1.4-19.4,4.3.2.4.7.6,1,.9,12.9,1.1,27.1-1.4,39.6-4.6,22.4,2.7,44.2,9.2,66.4,13.1,6.2,1.1,13,2.6,19.3,2.7,1.3-.6,2.5-1.3,3.9-.7s1.4.8,1.9,1.2c4.4.8,9.3.7,13.8.7,21.5,0,43.5-3,63.8-10.3-1.4,15.6-5.9,28.9-18.3,39.2-2.5,2.1-5.2,4-7.9,6-.6,2.7-1.2,5.4-1.9,8.1-5.2,4.5-11.4,8.3-17.4,11.6-23.9,13.2-50.3,19.1-77.4,19.3-15.6.1-30.4-1.2-45.7,2.9-15.7,4.3-27.8,13.1-41.7,21-26.9,15.4-61.1,22.5-92,20.3-23.3-1.6-51.1-8.2-66.9-26.7-.5-.6-1-1.2-1.5-1.9s-1-1.3-1.4-2c-.5-.7-.9-1.3-1.3-2s-.8-1.4-1.2-2.1c-.4-.7-.8-1.4-1.1-2.1-.4-.7-.7-1.5-1-2.2s-.6-1.5-.9-2.2c-.3-.8-.5-1.5-.8-2.3-.2-.8-.5-1.5-.7-2.3s-.4-1.6-.6-2.4-.3-1.6-.4-2.4-.2-1.6-.3-2.4-.2-1.6-.2-2.4v-4.8c0-.8,0-1.6.2-2.4,1.6-19.9,13.9-39.2,28.6-52.2l-.3-.3Z"/>
  <path class="st2" d="M659,309c1.3-.6,2.5-1.3,3.9-.7s1.4.8,1.9,1.2c-2.2,5-5.1,8.9-8.8,12.8-13.6,14.1-31.5,19.7-50.8,20.6-10.4.5-21,.5-31,3.8-11.6,3.8-18.2,9.2-28.4,15.5-13.6,8.4-34.5,13.8-50.5,13.9-2.3,0-4.8.1-6.5-1.5l.2-.8q.6-.4,1.3-.8c3.5-1.5,8.3-1.5,12.1-2.2,9.5-1.8,19-3.9,28.1-7.5,16.4-6.5,29.2-18.6,46.7-22.9,15.2-3.7,30.9-1.3,45.9-4.5,16-3.5,27.2-13.2,35.9-26.7v-.2Z"/>
  <path class="st2" d="M518.6,316.9c.2,0,.4,0,.6.1,1.2.5,1.5.9,2,2-1.4,2.7-6,5.2-8.6,6.8-8.9,5.4-19.5,10.3-29.8,12.1-13,2.4-25.4,2.3-38.1,7.2-15,5.9-25.7,14.8-36.5,26.5-1.1,0-1.6-.2-2.5-.9-.2-.6-.4-.9-.2-1.6,1.2-3.8,6.2-8,9-10.7,13.1-12.6,31.2-20.5,49.1-23.1,7.4-1.1,14.8-1.2,22-3.4,11.8-3.5,22.2-9.1,32.8-15.1h.2Z"/>
  <path class="st2" d="M437,397.8c5.4.9,10.2,3,15.9,3.1,3.1,0,10.5-1.4,12.7-.8.9.2.8.4,1.3,1.1l-.4,1.4c-4.1,1.3-8,1.8-12.2,1.9-4.1,0-13.9-.2-16.6-3.6-1-1.3-.8-1.6-.7-3.1h0Z"/>
  <path class="st0" d="M295.6,301.1c16-.3,31.7.9,47.4,4,12.2,2.5,24.9,7.1,37.5,7-3.5,3.7-6.9,7.3-9.9,11.3-2.9,4-5.4,8.2-8.6,12-8.8,3.4-28.2-1.8-36.7-5.3-13-5.4-24.2-15.9-29.6-29h0Z"/>
  <path class="st2" d="M552.7,292.5c20.6-3.2,38-12.2,50.5-29.2,13.4-18.1,15.4-44.4,42.2-48.6,9.2-1.5,19.7.8,27.2,6.4,7.6,5.6,11.6,13.8,12.9,23,.6,3.9.8,8.8,4.3,11.4,3.9,2.9,11.6,2.5,14,6.6,0,1.3.2,1.7-.5,2.9-.6.9-2.5,1.2-3.5,1.2-6.7-.2-13.3-6.3-17.8-10.8-5,8.4-19.6,29.4-28.8,32.1-1.1.3-1.9.1-2.9-.3-1.1-1-1.4-1.6-1.8-3.1.7-2.8,9.6-7.6,12.3-10,7-6.5,17.6-20.6,18-30.5,0-3.6-1.4-7.8-3.2-10.8-3.7-6.2-10.8-10.6-17.6-12.2-7.4-1.7-15-.6-21.4,3.6-8,5.2-12.5,13.5-16.7,21.8-11.5,22.9-21.6,38-46.5,47.4-12.5,3.2-26.7,5.7-39.6,4.6-.3-.3-.8-.5-1-.9,5.6-2.9,13.3-2.6,19.4-4.3.2,0,.3-.1.5-.2h0Z"/>
  <path class="st2" d="M399.6,154.9c.9,0,1.6,0,2.4.4.7.3,1,.9,1.2,1.6.7,2.6-1.6,8-2.8,10.4-6.9,14.1-22.7,19.7-36.5,24.5-15.3,5.3-29.8,12.5-37.2,27.8-9.4,19.6-5.6,44.7,7.8,61.5,2,2.5,8.5,7.5,9.4,9.9-.2,1.5-.5,2-1.4,3.1-1,.5-1.3.7-2.4.3-6.9-2-14.8-15.6-17.4-21.8-2.1-4.9-3.2-10.4-5.8-15.1-1.3-2.3-12-2.4-15.4-3.9-10.6-4.5-20.1-12.3-31.4-15.1-5.4-1.4-10.2-.2-14.9,2.7-9.3,5.7-14.4,15.4-16.7,25.7-.1.6-.2,1.3-.5,1.8-.6,1.3-1.1,1.8-2.3,2.4l-1.1-.5c-.8-1.1-.9-1.9-1-3.2-.4-8.4,6.5-19.3,12.1-25.1,6.9-7.1,14.3-9.2,24.1-9.4-1.2-13-1-25.1,6.5-36.4,1.5-2.3,3.7-5.9,6.6-6.5,1.3.4,1.5.5,2.4,1.4.7,3.2-3.3,6.9-4.9,9.5-4.5,7.6-7.4,19.4-5.1,28,2.2,7.9,10.3,10.1,16.8,13.5,3.2,1.7,6.2,3.6,9.3,5.4,3.6,2.1,10,4.6,14.2,3.5.3-.2.7-.4.8-.7.7-2.5-.2-9.5,0-12.7.2-2.7.6-5.4,1.2-8s1.4-5.2,2.3-7.8c10.6-27.9,34.1-31.1,58.2-42.2,13.4-6.2,16.5-11.6,21.6-25h-.1Z"/>
  <path class="st2" d="M452.8,96.9h.5c1.6.3,2.6,1,3.4,2.3.5,3.5-7.5,11.4-8.6,19.3-2,14.4,7.3,27.9,4.3,42-2.1,9.8-9.2,17.6-14.3,25.8-5.2,8.5-9.1,18.3-11.1,28.1-.2,1.2-.4,2.5-.6,3.8-.1,1.3-.2,2.5-.2,3.8s0,2.5.1,3.8c0,1.3.2,2.5.4,3.8.8,4.5,3.4,10,2.4,14.4-.4.1-1.1.4-1.5.5-1,.1-1.8-.4-2.5-1.1-2.2-2.4-3.2-8.5-3.8-11.7-3.2-16.9,2.8-33.4,11.8-47.5,5.1-8,10.7-15.6,12.4-25.1,2.4-13.2-4.7-25.2-3.8-38.4.6-8.9,4.2-17.9,10.9-23.8h.2Z"/>
  <path class="st2" d="M502.4,114.9l1.2,1.1c1.4,3.9-3.3,8-5.6,10.9-5,6.3-8.5,13.1-11.3,20.7-10.6,29.1,1.2,50.8-6.1,77.1-3.2,11.7-10.6,28.3-21.5,34.6-.8-.3-1.2-.7-1.9-1.2-1-4.7,7.5-12.9,10-16.9,2-3.2,3.7-6.8,5-10.4,9.9-26.4.3-45.3,5.2-71.1,2.9-15.2,11.7-35.8,25-44.7h0Z"/>
  <path class="st2" d="M554,104.5h.7c1.3.2,1.8.3,2.6,1.3,0,.4,0,.7,0,1.2-1,3.3-6.6,4.8-9.4,6.2-4.7,2.4-8.9,6.3-11.9,10.6-10.8,15.9.3,28.6,2.3,44.6.8,6.6-.2,13.3-2.4,19.5-3.1,8.7-8.3,17.8-16.9,22-1-.6-1.7-1.2-2.5-2.1,0-.5-.2-.9,0-1.4.4-2.1,7.2-7.5,9-9.8,1.1-1.5,2-3.1,2.7-4.7,8.2-17.4,4.2-25.8-1.6-42.5-2.9-8.2-2.5-16.4,1.4-24.2,5.3-10.7,15.3-17,26.3-20.7h0Z"/>
  <path class="st2" d="M569.9,136.1c23.2-.9,44.3,3.7,59.1,23.1,4.4,5.8,7.3,12.5,12.8,17.4,5.1,4.4,13.5,7.2,20.3,7.3,3.1,0,6.2-.6,9.4-.7,1.5,0,2.1,0,3.2,1,.3,1.5,0,2.2-.5,3.6-4.6,2-10.7,2-15.6,1.3-27.9-3.8-26.5-25.9-46.3-38.2-1.1-.7-2.2-1.3-3.3-1.9-1.1-.6-2.2-1.2-3.4-1.7-1.1-.5-2.3-1-3.4-1.5-1.2-.5-2.3-.9-3.5-1.3-1.2-.4-2.4-.8-3.6-1.1-1.2-.3-2.4-.7-3.6-.9-1.2-.3-2.4-.5-3.7-.7-1.2-.2-2.5-.4-3.7-.5-4.4-.6-8.9-.6-13.2-1.8-1-1.2-.8-1.8-.9-3.3h0Z"/>
  <path class="st2" d="M393.4,121.2c1.3,0,2.3-.2,3.6,0,1.1.8,1.2.8,1.7,2-.9,1.4-16.7,5.4-20.3,7.2-7.2,3.6-14.4,9.9-19.4,16.2-4.2,5.3-7.6,11.7-13.6,15.3-10,6.2-23.2,3.8-33.9,1.2-1.3-.4-3-.8-4.1-1.7-1-.9-1.7-2.3-1.7-3.6,1-.9,2.2-.8,3.4-.8,9.2.3,19,4,28.3,2.2,7.5-1.5,17-17.5,23.5-23.2,9.2-8.2,20.3-12.8,32.4-14.8h.1Z"/>
  <path class="st0" d="M710.2,367h.5c.9,4.6-8.9,25.9-11.1,30.1-12,23.1-30.7,39.2-55.6,47-2.2.7-4.5,1.3-6.8,1.8s-4.6,1-6.9,1.4c-2.3.4-4.6.7-6.9.9-2.3.2-4.6.4-7,.4-18.4.7-51.4-3.5-67.9-12.1-4.3-3.4-8.8-7.5-11.8-12.1-1.2-1.9-2.1-4.3-1.5-6.6,1.2-4.7,7.9-7.9,11.8-10.2,10.3-6.2,20.7-11.6,32.5-14.5,14-3.4,29.4-2.2,43.7-2.7,10.7-.4,21.3-1.6,31.8-3.5,19.9-3.6,37.6-9.9,55.2-19.9h0Z"/>
  <path class="st0" d="M525.1,420.9c2,.7,5.6,8,7.1,10,4,5.5,9.2,10,14.2,14.5-4,12.3-7.3,23.7-7.4,36.7-.2,18.1,5.2,37.1,18.1,50.2,19.7,19.9,46.9,16.6,72.5,16.6v23h-36.2c-6.4-.2-12.6-.7-18.8-2-29.9-5.9-49.1-25.3-58.8-53.7-4.5-13.2-7.3-26.7-12.5-39.7-5.7-14.4-14.6-27.4-23.2-40.2,16.9-4.8,29-6.4,45-15.4h0Z"/>
  <path class="st0" d="M215.3,294.6c17.6,9.7,36.9,9.5,56.5,8.2,5.3-.4,10.9-.5,16.2-1.3,1.7,2.2,3,4.7,4.6,7,4.5,6.5,9.5,12.6,15.5,17.8,13.8,11.8,33.5,16.6,51.3,15.2-2.8,6.2-5,12.6-7.2,19-6.3,1.9-13.1,2.8-19.7,3.2-12.8.9-28.6-.2-40.5-5.4-3.9-1.7-7.5-4.6-11.5-5.7-3.9-1.1-8.3-1.1-12.4-2-11.6-2.6-23.7-9.4-32.6-17.2-11.4-10-19.3-23.4-20.3-38.7h.1Z"/>
  <path class="st2" d="M652.5,648.2c6.2-.6,12.8-.2,19-.2,12.3,0,24.6,0,36.9.4-1.4,5-1.5,9.2-.7,14.3-12.2.3-24.5,0-36.7,0s-13.1-.6-19.3.5c-3.1.6-5.6,1.6-8,3.7-4.4,3.8-6,8-6.4,13.7-.9,11-.2,22.6-.2,33.7v127.4c0,10.6-.7,21.8.2,32.3.3,3.8,1.1,7.9,3.6,10.8,3.6,4.1,7,5.8,12.3,6.2,10.3.6,20.9.2,31.2.2h93.6c5.6,0,11.8.5,17.2-.3,3.2-.5,6.6-2,8.9-4.2,4.1-4,5.3-8.2,5.4-13.7.4-14.2,0-28.6,0-42.8v-129.3c0-7.7.6-16-.4-23.6-.4-3.2-2.5-6.8-4.8-9.1s-5.7-4-9-4.8c-7.9-1.7-31.8-.6-41.4-.6.8-5.1.4-9.5-.9-14.5,10.7-.2,21.4-.3,32.2-.2,8.7,0,16.5.6,23.9,5.5,7.1,4.7,11.7,12.2,13.2,20.5,1.5,8,.5,20.9.5,29.3v196.5c0,6.1.4,12.4-.2,18.5-.6,6.9-2.5,13.6-6.5,19.3-.3.5-.6.9-1,1.3-.3.4-.7.9-1,1.3-.4.4-.7.8-1.1,1.2l-1.2,1.2c-.4.4-.8.8-1.2,1.1-.4.4-.8.7-1.3,1-.4.3-.9.7-1.3,1-.5.3-.9.6-1.4.9-.5.3-.9.6-1.4.8-.5.3-1,.5-1.5.8-.5.2-1,.5-1.5.7s-1,.4-1.5.6c-.5.2-1,.4-1.6.6-.5.2-1,.3-1.6.5-.5,0-1.1.3-1.6.4-.5,0-1.1.2-1.6.3-8.6,1.5-18,.7-26.7.7h-90.1c-7.9,0-16.2.6-24-.4-.7,0-1.5-.2-2.2-.3s-1.5-.3-2.2-.5-1.4-.4-2.2-.6-1.4-.5-2.1-.8c-.7-.3-1.4-.6-2.1-.9-.7-.3-1.3-.7-2-1-.7-.4-1.3-.7-1.9-1.1-.6-.4-1.3-.8-1.9-1.3-8-5.8-12.2-14.8-13.6-24.4-1.9-12.9-.8-27-.8-40v-159.9c0-13.3-1-30.9.4-43.8.6-6,2.2-11.5,5.9-16.3,5.8-7.5,14-11.3,23.2-12.5h.5Z"/>
  <path class="st1" d="M720.5,909.8c.2,0,.5,0,.7-.2.2,0,.5,0,.8,0s.5,0,.8,0h2.4c.3,0,.5,0,.8,0,.2,0,.5,0,.7.2.2,0,.5,0,.7.2.2,0,.5.2.7.3.2,0,.5.2.7.3s.4.2.7.4c.2,0,.4.3.6.4.2,0,.4.3.6.4.2.2.4.3.6.5.2.2.4.3.6.5s.4.4.5.6c.2.2.3.4.5.6.2.2.3.4.4.6,0,.2.3.4.4.6,0,.2.2.4.4.7,0,.2.2.5.3.7,0,.2.2.5.3.7,0,.2.2.5.2.7s0,.5.2.7c0,.2,0,.5,0,.8v3.2c0,.3,0,.5,0,.7,0,.2,0,.5-.2.7,0,.2,0,.5-.2.7,0,.2-.2.5-.3.7s-.2.5-.3.7-.2.4-.4.7c0,.2-.3.4-.4.6,0,.2-.3.4-.5.6-.2.2-.3.4-.5.6-.2.2-.3.4-.5.5-.2.2-.4.3-.6.5-.2.2-.4.3-.6.5-.2.2-.4.3-.6.4-.2,0-.4.3-.7.4-.2,0-.4.2-.7.3-.2,0-.5.2-.7.3-.2,0-.5.2-.7.3-.2,0-.5,0-.7.2-.2,0-.4,0-.5,0h-4.8c-.2,0-.4,0-.5,0-.2,0-.4,0-.5-.2-.2,0-.4,0-.5-.2-.2,0-.4,0-.5-.2-.2,0-.3,0-.5-.2-.2,0-.3-.2-.5-.3-.2,0-.3-.2-.5-.3-.2,0-.3-.2-.5-.3s-.3-.2-.5-.3-.3-.2-.4-.3c0,0-.3-.2-.4-.4l-.4-.4-.4-.4c0,0-.2-.3-.4-.4,0,0-.2-.3-.3-.4,0-.2-.2-.3-.3-.5s-.2-.3-.3-.5-.2-.3-.3-.5c0-.2-.2-.3-.3-.5,0-.2-.2-.3-.2-.5s0-.3-.2-.5c0-.2,0-.4-.2-.5,0-.2,0-.4-.2-.5,0-.2,0-.4,0-.5v-4.8c0-.2,0-.4,0-.5,0-.2,0-.4,0-.5s0-.4.2-.5c0-.2,0-.4.2-.5,0-.2,0-.3.2-.5,0-.2.2-.3.2-.5s.2-.3.3-.5c0-.2.2-.3.3-.5s.2-.3.3-.5.2-.3.3-.4c0,0,.2-.3.4-.4l.4-.4.4-.4.4-.4c0,0,.3-.2.4-.4,0,0,.3-.2.5-.3s.3-.2.5-.3c.2,0,.3-.2.5-.3.2,0,.3-.2.5-.3.2,0,.3-.2.5-.2s.3,0,.5-.2c.2,0,.4,0,.5-.2.2,0,.4,0,.5-.2v.2Z"/>
  <path class="st0" d="M730.3,621.2c3.4,2,13.2,25.1,14.5,30,1.2,4.7,1.3,9.7-1.3,14-2.5,4-6.6,5.8-11,6.9-3.7,0-7.2-.6-10.4-2.6-3.1-2-5-5.1-5.8-8.7-2.2-10.2,8.4-30.8,14-39.5h0Z"/>
  <path class="st0" d="M709.9,683.2c.2,0,.3,0,.5.2,2.9,1.8,12.8,25.3,13.9,29.6,1.2,4.8,1.2,10-1.5,14.3-2.7,4.2-6.5,5.7-11.1,6.7-3.6-.2-6.7-.8-9.8-2.7-3.3-2.1-5.3-5.5-6-9.3-2-9.8,8.4-30.5,14-38.8h0Z"/>
  <path class="st0" d="M745.6,730.7c.2,0,.3,0,.5.2,3.3,2,13.3,26.3,14.2,30.9.9,4.7.6,9.4-2.2,13.4-2.6,3.8-6.4,5.2-10.7,6-3.3,0-6.2-.6-9.1-2.3-3.4-2-5.6-5.3-6.4-9.2-2.2-10.5,8.2-30.1,13.7-39.1h0Z"/>
</svg>