<?xml version="1.0" encoding="UTF-8"?>
<svg width="500" height="500" viewBox="0 0 500 500" fill="none" xmlns="http://www.w3.org/2000/svg">
    <!-- 大腦主體（灰色部分） -->
    <path d="M 162.5 197.234375 C 189.734375 212.175781 224.914062 200.308594 228.886719 167.777344 C 249.921875 171.75 275.40625 157.710938 277.207031 139.21875 C 284.679688 134.394531 285.101562 123.851562 279.855469 120.304688 C 286.003906 97.890625 267.988281 84.273438 258.347656 82.527344 C 257.445312 62.285156 236.359375 57.464844 228.886719 59.214844 C 224.066406 41.199219 191.535156 36.378906 181.839844 42.949219 C 175.691406 34.152344 161.597656 33.835938 155.929688 40.140625 C 147.558594 30.65625 132.140625 36.378906 128.644531 46.496094 C 117.199219 36.378906 102.683594 43.425781 98.761719 53.066406 C 83.394531 46.019531 65.382812 57.890625 62.308594 80.300781 C 45.617188 78.128906 39.898438 97.46875 42.070312 108.011719 C 25.804688 109.335938 30.625 125.175781 31.523438 126.023438 C 19.65625 128.199219 21.300781 143.773438 22.253906 146.316406 C 15.734375 151.933594 19.128906 161.207031 21.617188 163.800781 C 13.988281 182.71875 25.855469 189.285156 29.828125 189.710938 C 32.003906 202.902344 43.023438 203.378906 51.339844 203.59375 C 59.710938 203.804688 126.472656 203.59375 126.472656 203.59375" fill="#E7E9EC"/>
    
    <!-- 橙色部分 -->
    <path d="M 162.5 197.234375 C 162.5 197.234375 137.863281 228.867188 131.714844 249.105469 C 125.570312 269.34375 109.304688 262.296875 112.378906 249.105469 C 115.449219 235.914062 122.019531 201.632812 122.019531 201.632812" fill="#e67e5a"/>
    
    <!-- 水龍頭 -->
    <path d="M 130 250 L 150 250 L 150 260 L 130 260 Z M 135 260 L 145 260 L 145 270 L 135 270 Z" fill="#808080"/>
    
    <!-- 水滴動畫 -->
    <g>
        <circle cx="140" cy="280" r="3" fill="#e67e5a">
            <animate attributeName="cy" values="280;300;320" dur="1.5s" repeatCount="indefinite"/>
            <animate attributeName="opacity" values="1;0.7;0" dur="1.5s" repeatCount="indefinite"/>
        </circle>
        <circle cx="140" cy="290" r="3" fill="#e67e5a" opacity="0.7">
            <animate attributeName="cy" values="290;310;330" dur="1.5s" begin="0.3s" repeatCount="indefinite"/>
            <animate attributeName="opacity" values="0.7;0.4;0" dur="1.5s" begin="0.3s" repeatCount="indefinite"/>
        </circle>
        <circle cx="140" cy="300" r="3" fill="#e67e5a" opacity="0.4">
            <animate attributeName="cy" values="300;320;340" dur="1.5s" begin="0.6s" repeatCount="indefinite"/>
            <animate attributeName="opacity" values="0.4;0.2;0" dur="1.5s" begin="0.6s" repeatCount="indefinite"/>
        </circle>
    </g>
    
    <!-- 手機 -->
    <rect x="110" y="350" width="60" height="100" rx="5" fill="none" stroke="#808080" stroke-width="2"/>
    
    <!-- 手機內容 -->
    <g fill="#e67e5a" opacity="0.3">
        <rect x="120" y="360" width="40" height="3"/>
        <rect x="120" y="370" width="35" height="3"/>
        <rect x="120" y="380" width="30" height="3"/>
    </g>
    
    <!-- 水漬 -->
    <ellipse cx="140" cy="340" rx="15" ry="5" fill="#e67e5a" opacity="0.3"/>
</svg> 