<svg xmlns="http://www.w3.org/2000/svg" xmlns:xlink="http://www.w3.org/1999/xlink" width="400" zoomAndPan="magnify" viewBox="0 0 300 299.999988" height="400" preserveAspectRatio="xMidYMid meet" version="1.0"><path fill="#e67e5a" d="M 162.5 197.234375 C 162.5 197.234375 137.863281 228.867188 131.714844 249.105469 C 125.570312 269.34375 109.304688 262.296875 112.378906 249.105469 C 115.449219 235.914062 122.019531 201.632812 122.019531 201.632812 Z M 162.5 197.234375 " fill-opacity="1" fill-rule="nonzero"/><path fill="#e7e9ec" d="M 162.5 197.234375 C 189.734375 212.175781 224.914062 200.308594 228.886719 167.777344 C 249.921875 171.75 275.40625 157.710938 277.207031 139.21875 C 284.679688 134.394531 285.101562 123.851562 279.855469 120.304688 C 286.003906 97.890625 267.988281 84.273438 258.347656 82.527344 C 257.445312 62.285156 236.359375 57.464844 228.886719 59.214844 C 224.066406 41.199219 191.535156 36.378906 181.839844 42.949219 C 175.691406 34.152344 161.597656 33.835938 155.929688 40.140625 C 147.558594 30.65625 132.140625 36.378906 128.644531 46.496094 C 117.199219 36.378906 102.683594 43.425781 98.761719 53.066406 C 83.394531 46.019531 65.382812 57.890625 62.308594 80.300781 C 45.617188 78.128906 39.898438 97.46875 42.070312 108.011719 C 25.804688 109.335938 30.625 125.175781 31.523438 126.023438 C 19.65625 128.199219 21.300781 143.773438 22.253906 146.316406 C 15.734375 151.933594 19.128906 161.207031 21.617188 163.800781 C 13.988281 182.71875 25.855469 189.285156 29.828125 189.710938 C 32.003906 202.902344 43.023438 203.378906 51.339844 203.59375 C 59.710938 203.804688 126.472656 203.59375 126.472656 203.59375 Z M 162.5 197.234375 " fill-opacity="1" fill-rule="nonzero"/><path fill="#e7e9ec" d="M 57.011719 214.453125 C 57.910156 225.261719 84.242188 230.613281 94.789062 231.515625 C 105.332031 232.414062 132.140625 231.515625 133.464844 215.25 C 134.789062 198.984375 118.523438 196.917969 97.011719 197.234375 C 64.058594 197.660156 56.109375 203.699219 57.011719 214.453125 Z M 57.011719 214.453125 " fill-opacity="1" fill-rule="nonzero"/><path fill="#e67e5a" d="M 164.460938 100.699219 C 167.320312 92.273438 164.617188 82.738281 164.511719 82.3125 L 164.25 81.308594 L 163.242188 80.9375 C 151.585938 76.644531 145.332031 65.570312 146.550781 51.425781 C 146.65625 50.3125 145.808594 49.304688 144.644531 49.199219 C 143.53125 49.09375 142.523438 49.941406 142.417969 51.105469 C 141.09375 66.84375 147.929688 79.242188 160.75 84.484375 C 161.28125 86.976562 162.445312 93.652344 160.539062 99.425781 C 160.167969 100.539062 160.75 101.707031 161.863281 102.078125 C 162.074219 102.128906 162.289062 102.183594 162.5 102.183594 C 163.347656 102.183594 164.140625 101.652344 164.460938 100.699219 Z M 249.179688 146.371094 C 254.214844 145.046875 257.871094 140.859375 258.980469 135.191406 C 259.9375 130.210938 258.769531 123.21875 252.570312 118.605469 L 254.742188 115.058594 C 257.339844 116.328125 261.789062 116.699219 264.863281 115.058594 C 265.871094 114.527344 267.140625 114.898438 267.671875 115.90625 C 268.199219 116.910156 267.832031 118.183594 266.824219 118.714844 C 264.703125 119.824219 262.320312 120.304688 259.9375 120.304688 C 262.957031 124.804688 264.175781 130.371094 263.0625 135.984375 C 261.683594 143.136719 256.757812 148.648438 250.238281 150.398438 C 250.082031 150.449219 249.867188 150.449219 249.710938 150.449219 C 248.808594 150.449219 247.960938 149.816406 247.695312 148.914062 C 247.378906 147.800781 248.066406 146.636719 249.179688 146.371094 Z M 213.097656 72.246094 C 211.984375 72.511719 210.875 71.875 210.554688 70.761719 C 210.289062 69.652344 210.925781 68.539062 212.039062 68.21875 C 213.417969 67.847656 214.792969 67.585938 216.117188 67.425781 C 213.046875 63.558594 207.113281 60.644531 199.90625 59.636719 C 190.050781 58.257812 180.621094 60.75 176.433594 65.890625 C 175.691406 66.789062 174.421875 66.894531 173.519531 66.207031 C 172.621094 65.464844 172.511719 64.195312 173.203125 63.292969 C 174.050781 62.234375 175.058594 61.28125 176.222656 60.433594 C 173.730469 59.105469 172.144531 56.882812 170.289062 52.21875 C 169.863281 51.160156 170.394531 49.941406 171.453125 49.515625 C 172.511719 49.09375 173.730469 49.625 174.15625 50.683594 C 176.488281 56.457031 177.707031 56.988281 181.042969 57.730469 C 186.449219 55.398438 193.335938 54.605469 200.542969 55.609375 C 210.238281 56.988281 217.761719 61.28125 220.992188 67.265625 C 225.816406 67.371094 230.105469 68.804688 233.816406 71.558594 C 243.882812 78.921875 247.273438 94.394531 247.695312 102.339844 C 247.75 103.507812 246.902344 104.460938 245.734375 104.515625 C 245.683594 104.515625 245.683594 104.515625 245.628906 104.515625 C 244.519531 104.515625 243.617188 103.667969 243.5625 102.554688 C 243.511719 101.757812 242.398438 83.003906 231.378906 74.894531 C 226.449219 71.242188 220.355469 70.394531 213.097656 72.246094 Z M 41.0625 138.792969 C 42.917969 135.613281 45.9375 133.230469 49.644531 132.011719 C 49.488281 128.515625 50.015625 124.859375 51.183594 121.839844 C 52.613281 118.183594 54.945312 115.746094 57.910156 114.898438 C 59.023438 114.582031 60.1875 115.214844 60.507812 116.328125 C 60.824219 117.441406 60.1875 118.605469 59.078125 118.925781 C 56.957031 119.5625 55.738281 121.679688 55.050781 123.375 C 53.035156 128.566406 53.671875 135.984375 55.578125 139.164062 C 56.164062 140.171875 55.84375 141.441406 54.890625 142.027344 C 54.574219 142.238281 54.203125 142.34375 53.832031 142.34375 C 53.140625 142.34375 52.453125 141.972656 52.03125 141.335938 C 51.183594 139.960938 50.597656 138.210938 50.175781 136.304688 C 47.792969 137.257812 45.882812 138.847656 44.664062 140.914062 C 43.128906 143.507812 42.863281 146.53125 43.765625 149.65625 C 44.082031 150.769531 43.445312 151.933594 42.386719 152.25 C 42.175781 152.304688 42.015625 152.359375 41.804688 152.359375 C 40.902344 152.359375 40.054688 151.773438 39.789062 150.875 C 38.519531 146.582031 38.996094 142.289062 41.0625 138.792969 Z M 102.46875 97.625 C 104.007812 97.097656 105.597656 96.777344 107.183594 96.671875 C 112.535156 91.957031 113.171875 84.59375 112.058594 79.769531 C 111.792969 78.65625 112.535156 77.546875 113.648438 77.28125 C 114.761719 77.015625 115.875 77.757812 116.140625 78.871094 C 117.253906 83.902344 116.828125 91.164062 112.640625 96.832031 C 118.363281 97.730469 123.820312 100.804688 127.476562 105.574219 C 128.167969 106.472656 128.007812 107.800781 127.105469 108.488281 C 126.207031 109.175781 124.882812 109.015625 124.191406 108.117188 C 119.425781 101.863281 111 99.214844 103.792969 101.601562 C 101.515625 102.339844 99.554688 103.558594 97.964844 105.097656 C 97.914062 105.148438 97.914062 105.148438 97.859375 105.203125 C 95 108.0625 93.410156 112.089844 93.355469 116.964844 C 93.355469 118.128906 92.402344 119.03125 91.289062 119.03125 C 91.289062 119.03125 91.289062 119.03125 91.238281 119.03125 C 90.070312 119.03125 89.171875 118.078125 89.171875 116.910156 C 89.222656 111.5625 90.917969 106.898438 93.886719 103.402344 C 92.03125 100.59375 89.808594 98.6875 87.792969 98.261719 C 86.894531 98.050781 86.097656 98.207031 85.460938 98.632812 C 84.507812 99.320312 83.238281 99.109375 82.546875 98.15625 C 81.859375 97.203125 82.070312 95.929688 83.023438 95.242188 C 84.613281 94.078125 86.628906 93.707031 88.695312 94.128906 C 91.660156 94.765625 94.574219 97.042969 97.011719 100.488281 C 98.601562 99.269531 100.457031 98.316406 102.46875 97.625 Z M 183.109375 92.433594 C 182.367188 87.769531 179.824219 83.054688 175.480469 78.179688 C 174.6875 77.332031 174.792969 76.007812 175.640625 75.265625 C 176.488281 74.472656 177.8125 74.578125 178.554688 75.425781 C 182.421875 79.71875 185.015625 84.0625 186.394531 88.40625 C 189.203125 86.445312 192.753906 85.757812 196.410156 86.550781 C 197.523438 86.816406 198.261719 87.878906 198 89.042969 C 197.734375 90.15625 196.675781 90.898438 195.507812 90.632812 C 192.328125 89.945312 189.308594 90.84375 187.296875 93.070312 C 187.824219 98.632812 186.289062 104.089844 182.632812 109.175781 C 182.210938 109.757812 181.574219 110.023438 180.9375 110.023438 C 180.515625 110.023438 180.089844 109.917969 179.71875 109.652344 C 178.765625 108.964844 178.554688 107.691406 179.242188 106.738281 C 182.472656 102.289062 183.746094 97.679688 183.164062 92.910156 C 183.109375 92.804688 183.109375 92.644531 183.109375 92.433594 Z M 138.761719 104.40625 C 138.65625 104.40625 138.550781 104.40625 138.390625 104.355469 C 137.28125 104.144531 136.484375 103.082031 136.695312 101.96875 C 138.019531 94.023438 137.28125 86.660156 134.578125 80.671875 C 132.191406 75.425781 128.273438 71.242188 123.503906 68.960938 C 123.027344 68.75 122.601562 68.539062 122.125 68.378906 C 122.125 68.378906 122.125 68.378906 122.074219 68.378906 L 122.019531 68.378906 C 114.074219 65.253906 105.488281 67.480469 99.238281 74.367188 C 98.441406 75.214844 97.171875 75.265625 96.324219 74.527344 C 95.476562 73.730469 95.421875 72.460938 96.164062 71.613281 C 102.894531 64.140625 112.378906 61.28125 121.226562 63.769531 C 121.226562 62.605469 120.90625 61.386719 120.167969 60.113281 C 118.628906 57.253906 115.925781 55.34375 114.972656 55.132812 C 113.859375 54.921875 113.121094 53.808594 113.382812 52.644531 C 113.648438 51.476562 114.707031 50.789062 115.875 51.054688 C 118.152344 51.53125 121.808594 54.339844 123.875 58.101562 C 125.199219 60.539062 125.675781 62.976562 125.304688 65.304688 C 130.921875 68.007812 135.53125 72.9375 138.339844 79.082031 C 141.414062 85.863281 142.261719 94.078125 140.777344 102.820312 C 140.617188 103.667969 139.769531 104.40625 138.761719 104.40625 Z M 230.847656 108.699219 C 231.960938 108.964844 232.648438 110.078125 232.382812 111.191406 C 232.171875 112.144531 231.324219 112.777344 230.371094 112.777344 C 230.210938 112.777344 230.054688 112.777344 229.894531 112.726562 C 218.554688 110.078125 214.527344 104.300781 212.460938 100.167969 L 211.5625 98.367188 L 213.363281 97.414062 C 217.550781 95.1875 222.6875 89.308594 222.792969 85.652344 C 222.847656 84.484375 223.75 83.585938 224.914062 83.636719 C 226.078125 83.691406 226.980469 84.644531 226.925781 85.757812 C 226.820312 90.578125 221.945312 96.671875 217.125 99.957031 C 219.140625 103.242188 222.742188 106.792969 230.847656 108.699219 Z M 58.441406 107.164062 C 57.273438 107.164062 56.375 106.210938 56.375 105.097656 C 56.375 95.664062 62.414062 88.035156 72.109375 84.378906 C 71.792969 82.207031 72.058594 79.769531 73.011719 77.441406 C 74.175781 74.472656 76.136719 72.089844 78.308594 70.976562 C 79.316406 70.445312 80.585938 70.871094 81.117188 71.929688 C 81.648438 72.9375 81.222656 74.207031 80.164062 74.738281 C 77.566406 76.007812 76.03125 80.089844 76.191406 83.160156 C 78.042969 82.738281 79.953125 82.421875 81.964844 82.207031 C 83.132812 82.101562 84.136719 82.949219 84.242188 84.117188 C 84.347656 85.28125 83.5 86.289062 82.335938 86.394531 C 69.300781 87.507812 60.507812 95.03125 60.507812 105.097656 C 60.558594 106.261719 59.605469 107.164062 58.441406 107.164062 Z M 45.089844 161.152344 C 46.09375 160.570312 47.367188 160.941406 47.949219 161.894531 C 50.121094 165.65625 58.175781 169.152344 61.25 168.941406 L 63.472656 168.78125 L 63.472656 171.007812 C 63.472656 180.386719 53.777344 187.699219 49.328125 189.605469 C 49.0625 189.710938 48.796875 189.765625 48.53125 189.765625 C 47.738281 189.765625 46.945312 189.285156 46.625 188.492188 C 46.148438 187.433594 46.679688 186.214844 47.738281 185.738281 C 51.289062 184.199219 57.964844 178.957031 59.183594 172.863281 C 54.308594 172.066406 47.050781 168.464844 44.398438 163.90625 C 43.765625 163.007812 44.136719 161.734375 45.089844 161.152344 Z M 75.023438 126.980469 C 74.546875 123.21875 72.800781 120.089844 70.308594 118.660156 C 69.300781 118.078125 68.984375 116.804688 69.515625 115.800781 C 70.097656 114.792969 71.367188 114.476562 72.375 115.003906 C 75.976562 117.070312 78.519531 121.308594 79.15625 126.394531 C 79.261719 127.03125 79.261719 127.667969 79.316406 128.304688 C 82.972656 130.316406 85.460938 134.609375 88.109375 139.058594 C 90.546875 143.191406 93.039062 147.429688 96.535156 150.238281 C 101.570312 154.265625 117.835938 160.515625 130.867188 157.921875 C 137.757812 156.542969 142.84375 152.992188 146.023438 147.269531 C 146.550781 146.265625 147.824219 145.894531 148.828125 146.476562 C 149.835938 147.058594 150.207031 148.277344 149.625 149.285156 C 148.40625 151.511719 146.921875 153.46875 145.226562 155.164062 C 152.167969 158.1875 161.015625 158.1875 166.527344 152.25 C 167.320312 151.402344 168.644531 151.351562 169.492188 152.144531 C 170.339844 152.941406 170.394531 154.265625 169.597656 155.113281 C 168.167969 156.703125 166.472656 157.972656 164.671875 158.980469 C 170.554688 161.417969 176.699219 161.949219 181.414062 160.464844 C 181.574219 160.410156 181.734375 160.359375 181.890625 160.304688 C 183.800781 159.617188 185.496094 158.609375 186.765625 157.285156 C 187.5625 156.4375 188.886719 156.4375 189.734375 157.179688 C 190.582031 157.972656 190.582031 159.296875 189.839844 160.144531 C 189.148438 160.835938 188.410156 161.472656 187.613281 162.054688 C 195.773438 164.015625 204.566406 161.417969 206.898438 159.457031 C 207.800781 158.714844 209.070312 158.820312 209.8125 159.722656 C 210.554688 160.625 210.449219 161.894531 209.546875 162.636719 C 208.066406 163.855469 205.308594 165.125 201.867188 165.921875 C 206.476562 171.539062 206.265625 179.960938 205.308594 184.304688 C 205.097656 185.261719 204.25 185.949219 203.296875 185.949219 C 203.136719 185.949219 202.980469 185.949219 202.820312 185.894531 C 201.707031 185.632812 200.964844 184.519531 201.230469 183.40625 C 201.972656 180.066406 202.5 170.796875 196.726562 166.714844 C 195.773438 166.820312 194.765625 166.875 193.757812 166.875 C 189.945312 166.875 185.917969 166.238281 182.210938 164.542969 C 180.195312 165.125 177.972656 165.390625 175.640625 165.390625 C 170.394531 165.390625 164.617188 163.90625 159.269531 160.886719 C 157.890625 161.207031 156.40625 161.363281 154.921875 161.363281 L 154.605469 161.363281 C 150.261719 161.363281 145.652344 160.199219 141.675781 158.078125 C 138.816406 159.988281 135.476562 161.3125 131.714844 162.054688 C 129.226562 162.53125 126.683594 162.742188 124.140625 162.742188 C 111.210938 162.742188 98.496094 157.125 93.992188 153.523438 C 89.914062 150.238281 87.105469 145.46875 84.613281 141.230469 C 82.761719 138.105469 81.011719 135.085938 79 133.230469 C 78.097656 138.050781 75.554688 142.609375 71.6875 146.371094 C 71.261719 146.742188 70.734375 146.953125 70.257812 146.953125 C 69.726562 146.953125 69.195312 146.742188 68.773438 146.316406 C 67.976562 145.46875 67.976562 144.199219 68.824219 143.351562 C 73.488281 138.847656 75.765625 132.859375 75.023438 126.980469 Z M 101.992188 174.769531 C 110.945312 179.804688 124.246094 178.585938 132.722656 174.929688 C 132.722656 174.875 134.683594 174.082031 135.371094 173.605469 C 137.386719 172.4375 138.976562 171.167969 139.875 169.789062 C 140.511719 168.835938 141.835938 168.570312 142.789062 169.207031 C 143.742188 169.84375 144.007812 171.167969 143.371094 172.121094 C 142.417969 173.496094 141.042969 174.824219 139.292969 176.042969 C 149.414062 182.238281 156.246094 182.1875 163.1875 180.121094 C 164.300781 179.804688 165.464844 180.4375 165.785156 181.5 C 166.101562 182.609375 165.464844 183.777344 164.40625 184.09375 C 161.28125 185.046875 158.261719 185.523438 155.347656 185.523438 C 148.882812 185.523438 142.523438 183.195312 135.214844 178.371094 C 130.074219 180.757812 123.398438 182.292969 116.667969 182.292969 C 110.839844 182.292969 105.011719 181.128906 100.136719 178.371094 C 99.132812 177.789062 98.761719 176.519531 99.34375 175.511719 C 99.714844 174.558594 100.984375 174.1875 101.992188 174.769531 Z M 202.34375 138.160156 C 193.496094 134.183594 181.042969 134.449219 171.402344 138.898438 L 169.8125 139.640625 L 168.804688 138.210938 C 162.921875 129.945312 153.070312 124.699219 142.417969 124.222656 C 132.351562 123.746094 123.1875 127.5625 117.144531 134.609375 C 116.40625 135.457031 115.132812 135.5625 114.230469 134.820312 C 113.382812 134.078125 113.277344 132.808594 114.019531 131.90625 C 120.855469 123.851562 131.292969 119.507812 142.632812 120.039062 C 153.96875 120.566406 164.511719 125.917969 171.1875 134.449219 C 177.070312 132.011719 183.640625 130.953125 189.996094 131.21875 C 189.203125 127.933594 188.78125 123.429688 189.890625 119.457031 C 190.15625 118.34375 191.324219 117.707031 192.433594 118.023438 C 193.546875 118.289062 194.183594 119.457031 193.867188 120.566406 C 192.804688 124.328125 193.546875 128.9375 194.394531 131.640625 C 197.785156 132.117188 201.019531 133.070312 203.984375 134.394531 C 207.800781 136.144531 210.820312 138.527344 212.832031 141.285156 C 216.277344 134.132812 222.105469 128.832031 230.210938 125.496094 C 231.273438 125.019531 232.492188 125.546875 232.914062 126.609375 C 233.390625 127.667969 232.863281 128.886719 231.800781 129.308594 C 223.855469 132.542969 218.609375 137.628906 215.800781 144.835938 C 224.171875 147.640625 230.53125 156.96875 230.953125 167.667969 C 231.007812 168.835938 230.105469 169.789062 228.941406 169.84375 C 228.886719 169.84375 228.886719 169.84375 228.835938 169.84375 C 227.722656 169.84375 226.820312 168.941406 226.769531 167.828125 C 226.449219 159.40625 221.097656 149.816406 212.675781 148.332031 L 211.402344 148.117188 L 211.03125 146.902344 C 209.972656 143.402344 206.847656 140.332031 202.34375 138.160156 Z M 202.34375 138.160156 " fill-opacity="1" fill-rule="nonzero"/></svg>