<?xml version="1.0" encoding="UTF-8"?>
<svg xmlns="http://www.w3.org/2000/svg" xmlns:xlink="http://www.w3.org/1999/xlink" version="1.1" viewBox="0 0 732 902">
  <!-- Generator: Adobe Illustrator 29.3.0, SVG Export Plug-In . SVG Version: 2.1.0 Build 146)  -->
  <defs>
    <style>
      .st0 {
        fill: none;
      }

      .st1, .st2 {
        fill: #e67e5a;
      }

      .st3 {
        clip-path: url(#clippath-1);
      }

      .st2 {
        opacity: .2;
      }

      .st4 {
        clip-path: url(#clippath);
      }
    </style>
    <clipPath id="clippath">
      <rect class="st0" x=".3" y="192" width="215.7" height="206.7"/>
    </clipPath>
    <clipPath id="clippath-1">
      <rect class="st0" x="171" y="130.7" width="559.6" height="770.4"/>
    </clipPath>
  </defs>
  <g id="Layer_2">
    <polyline class="st2" points="308.5 296.1 664.3 296.1 664.3 735.7 308.5 735.7 308.5 625.7 431.4 625.7 434.5 411.9 308.5 410.9"/>
  </g>
  <g id="Layer_1">
    <g class="st4">
      <path class="st1" d="M150.3,263.5H61.2c-6,0-10.9-4.9-10.9-10.9s4.9-10.9,10.9-10.9h89.1c6,0,10.9,4.9,10.9,10.9s-4.9,10.9-10.9,10.9ZM117.7,302.7h-56.5c-6,0-10.9-4.9-10.9-10.9s4.9-10.9,10.9-10.9h56.5c6,0,10.9,4.9,10.9,10.9s-4.9,10.9-10.9,10.9ZM214.9,319.3v-91.2c0-19.7-16-35.7-35.7-35.7H36.5c-19.7,0-35.7,16-35.7,35.7v91.2c0,19.7,16,35.7,35.7,35.7h71.3l39.2,39.2c2.2,2.2,5.2,3.4,8.1,3.4s3-.3,4.4-.9c4.3-1.8,7.1-6,7.1-10.6v-31.1h12.6c19.7,0,35.7-16,35.7-35.7"/>
    </g>
    <path class="st1" d="M164.9,51.7h1.9c6,0,10.9,4.9,10.9,10.9s-4.9,10.9-10.9,10.9h-1.9c-6,0-10.9-4.9-10.9-10.9s4.9-10.9,10.9-10.9ZM201.2,51.7h1.9c6,0,10.9,4.9,10.9,10.9s-4.9,10.9-10.9,10.9h-1.9c-6,0-10.9-4.9-10.9-10.9s4.9-10.9,10.9-10.9ZM237.5,51.7h1.9c6,0,10.9,4.9,10.9,10.9s-4.9,10.9-10.9,10.9h-1.9c-6,0-10.9-4.9-10.9-10.9s4.9-10.9,10.9-10.9ZM143.1,128h62.8l29.4,29.4c2.1,2.1,4.8,3.2,7.6,3.2s2.8-.3,4.1-.8c4-1.7,6.6-5.6,6.6-9.9v-21.8h7.7c16.1,0,29.2-13.1,29.2-29.2V29.2c0-16.1-13.1-29.2-29.2-29.2h-118.2c-16.1,0-29.2,13.1-29.2,29.2v69.7c0,16.1,13.1,29.2,29.2,29.2"/>
    <g class="st3">
      <path class="st1" d="M687.1,756h-401.4v-125.1h34.1l54.6,54.6c3,3,6.9,4.6,11,4.6s4-.4,6-1.2c5.8-2.4,9.6-8,9.6-14.4v-43.6h18c27.1,0,49.1-22,49.1-49.1v-126.8c0-27.1-22-49.1-49.1-49.1h-133.2v-129.2h401.4v479.3ZM254.9,554.5c-6,0-10.9-4.9-10.9-10.9s4.9-10.9,10.9-10.9h78.4c6,0,10.9,4.9,10.9,10.9s-4.9,10.9-10.9,10.9h-78.4ZM254.9,478.2h123.8c6,0,10.9,4.9,10.9,10.9s-4.9,10.9-10.9,10.9h-123.8c-6,0-10.9-4.9-10.9-10.9s4.9-10.9,10.9-10.9ZM457.2,190.5h58.5c9,0,16.3,7.3,16.3,16.3s-7.3,16.3-16.3,16.3h-58.5c-9,0-16.3-7.3-16.3-16.3s7.3-16.3,16.3-16.3ZM624,131.6h-275.2c-58.8,0-106.7,47.9-106.7,106.7v167.7h-21.7c-27.1,0-49.1,22-49.1,49.1v126.8c0,27.1,22,49.1,49.1,49.1h21.7v163.6c0,58.8,47.9,106.7,106.7,106.7h275.2c58.8,0,106.7-47.9,106.7-106.7V238.3c0-58.8-47.9-106.7-106.7-106.7"/>
    </g>
    <path d="M623.1,720.4"/>
  </g>
</svg>