<svg xmlns="http://www.w3.org/2000/svg" xmlns:xlink="http://www.w3.org/1999/xlink" width="732" zoomAndPan="magnify" viewBox="0 0 549 676.49998" height="902" preserveAspectRatio="xMidYMid meet" version="1.0"><defs><filter x="0%" y="0%" width="100%" height="100%" id="760839c047"><feColorMatrix values="0 0 0 0 1 0 0 0 0 1 0 0 0 0 1 0 0 0 1 0" color-interpolation-filters="sRGB"/></filter><mask id="160fdee6eb"><g filter="url(#760839c047)"><rect x="-54.9" width="658.8" fill="#000000" y="-67.649998" height="811.799976" fill-opacity="0.16"/></g></mask><clipPath id="4bdfdaabbc"><path d="M 0.976562 0.867188 L 266.96875 0.867188 L 266.96875 109.917969 L 0.976562 109.917969 Z M 0.976562 0.867188 " clip-rule="nonzero"/></clipPath><clipPath id="b03071f204"><rect x="0" width="268" y="0" height="111"/></clipPath><mask id="f200ef9160"><g filter="url(#760839c047)"><rect x="-54.9" width="658.8" fill="#000000" y="-67.649998" height="811.799976" fill-opacity="0.16"/></g></mask><clipPath id="2cce703982"><path d="M 0.976562 0.117188 L 266.96875 0.117188 L 266.96875 109.171875 L 0.976562 109.171875 Z M 0.976562 0.117188 " clip-rule="nonzero"/></clipPath><clipPath id="65b09a1778"><rect x="0" width="268" y="0" height="110"/></clipPath><mask id="27ff5ecffd"><g filter="url(#760839c047)"><rect x="-54.9" width="658.8" fill="#000000" y="-67.649998" height="811.799976" fill-opacity="0.16"/></g></mask><clipPath id="89454f1f7b"><path d="M 0.800781 0.917969 L 156.96875 0.917969 L 156.96875 103.117188 L 0.800781 103.117188 Z M 0.800781 0.917969 " clip-rule="nonzero"/></clipPath><clipPath id="8ce7d35c69"><rect x="0" width="158" y="0" height="104"/></clipPath><clipPath id="959b436eac"><path d="M 0.203125 144 L 162 144 L 162 299 L 0.203125 299 Z M 0.203125 144 " clip-rule="nonzero"/></clipPath><clipPath id="121de73a16"><path d="M 128.28125 98 L 548.007812 98 L 548.007812 675.835938 L 128.28125 675.835938 Z M 128.28125 98 " clip-rule="nonzero"/></clipPath></defs><g mask="url(#160fdee6eb)"><g transform="matrix(1, 0, 0, 1, 230, 228)"><g clip-path="url(#b03071f204)"><g clip-path="url(#4bdfdaabbc)"><path fill="#e67e5a" d="M 0.976562 0.867188 L 266.792969 0.867188 L 266.792969 109.917969 L 0.976562 109.917969 Z M 0.976562 0.867188 " fill-opacity="1" fill-rule="nonzero"/></g></g></g></g><g mask="url(#f200ef9160)"><g transform="matrix(1, 0, 0, 1, 230, 440)"><g clip-path="url(#65b09a1778)"><g clip-path="url(#2cce703982)"><path fill="#e67e5a" d="M 0.976562 0.117188 L 266.792969 0.117188 L 266.792969 109.171875 L 0.976562 109.171875 Z M 0.976562 0.117188 " fill-opacity="1" fill-rule="nonzero"/></g></g></g></g><g mask="url(#27ff5ecffd)"><g transform="matrix(1, 0, 0, 1, 340, 337)"><g clip-path="url(#8ce7d35c69)"><g clip-path="url(#89454f1f7b)"><path fill="#e67e5a" d="M 0.800781 0.917969 L 156.894531 0.917969 L 156.894531 103.117188 L 0.800781 103.117188 Z M 0.800781 0.917969 " fill-opacity="1" fill-rule="nonzero"/></g></g></g></g><g clip-path="url(#959b436eac)"><path fill="#e67e5a" d="M 112.734375 197.601562 L 45.90625 197.601562 C 41.394531 197.601562 37.742188 193.949219 37.742188 189.433594 C 37.742188 184.921875 41.394531 181.273438 45.90625 181.273438 L 112.734375 181.273438 C 117.25 181.273438 120.902344 184.921875 120.902344 189.433594 C 120.902344 193.949219 117.25 197.601562 112.734375 197.601562 Z M 88.253906 226.988281 L 45.90625 226.988281 C 41.394531 226.988281 37.742188 223.335938 37.742188 218.824219 C 37.742188 214.316406 41.394531 210.65625 45.90625 210.65625 L 88.253906 210.65625 C 92.765625 210.65625 96.417969 214.316406 96.417969 218.824219 C 96.417969 223.335938 92.765625 226.988281 88.253906 226.988281 Z M 161.207031 239.4375 L 161.207031 171.027344 C 161.207031 156.289062 149.210938 144.289062 134.460938 144.289062 L 27.367188 144.289062 C 12.621094 144.289062 0.621094 156.289062 0.621094 171.027344 L 0.621094 239.4375 C 0.621094 254.179688 12.621094 266.175781 27.367188 266.175781 L 80.839844 266.175781 L 110.234375 295.5625 C 111.890625 297.21875 114.097656 298.105469 116.335938 298.105469 C 117.449219 298.105469 118.578125 297.886719 119.640625 297.4375 C 122.882812 296.105469 124.980469 292.972656 124.980469 289.46875 L 124.980469 266.175781 L 134.460938 266.175781 C 149.210938 266.175781 161.207031 254.179688 161.207031 239.4375 " fill-opacity="1" fill-rule="nonzero"/></g><path fill="#e67e5a" d="M 123.675781 38.792969 L 125.132812 38.792969 C 129.644531 38.792969 133.296875 42.453125 133.296875 46.960938 C 133.296875 51.472656 129.644531 55.125 125.132812 55.125 L 123.675781 55.125 C 119.15625 55.125 115.503906 51.472656 115.503906 46.960938 C 115.503906 42.453125 119.15625 38.792969 123.675781 38.792969 Z M 150.902344 38.792969 L 152.355469 38.792969 C 156.867188 38.792969 160.515625 42.453125 160.515625 46.960938 C 160.515625 51.472656 156.867188 55.125 152.355469 55.125 L 150.902344 55.125 C 146.386719 55.125 142.734375 51.472656 142.734375 46.960938 C 142.734375 42.453125 146.386719 38.792969 150.902344 38.792969 Z M 178.125 38.792969 L 179.578125 38.792969 C 184.085938 38.792969 187.738281 42.453125 187.738281 46.960938 C 187.738281 51.472656 184.085938 55.125 179.578125 55.125 L 178.125 55.125 C 173.605469 55.125 169.957031 51.472656 169.957031 46.960938 C 169.957031 42.453125 173.605469 38.792969 178.125 38.792969 Z M 107.300781 96.03125 L 154.371094 96.03125 L 176.410156 118.058594 C 177.949219 119.605469 179.996094 120.425781 182.09375 120.425781 C 183.125 120.425781 184.175781 120.230469 185.171875 119.820312 C 188.1875 118.566406 190.144531 115.652344 190.144531 112.382812 L 190.144531 96.03125 L 195.953125 96.03125 C 208.007812 96.03125 217.828125 86.21875 217.828125 74.152344 L 217.828125 21.875 C 217.828125 9.8125 208.007812 0 195.953125 0 L 107.300781 0 C 95.238281 0 85.417969 9.8125 85.417969 21.875 L 85.417969 74.152344 C 85.417969 86.21875 95.238281 96.03125 107.300781 96.03125 " fill-opacity="1" fill-rule="nonzero"/><g clip-path="url(#121de73a16)"><path fill="#e67e5a" d="M 515.347656 566.980469 L 214.300781 566.980469 L 214.300781 473.136719 L 239.855469 473.136719 L 280.796875 514.085938 C 283.027344 516.324219 286.003906 517.511719 289.027344 517.511719 C 290.535156 517.511719 292.046875 517.21875 293.492188 516.617188 C 297.871094 514.8125 300.695312 510.582031 300.695312 505.851562 L 300.695312 473.136719 L 314.222656 473.136719 C 334.523438 473.136719 351.035156 456.621094 351.035156 436.324219 L 351.035156 341.261719 C 351.035156 320.964844 334.523438 304.449219 314.222656 304.449219 L 214.300781 304.449219 L 214.300781 207.539062 L 515.347656 207.539062 Z M 191.164062 415.847656 C 186.652344 415.847656 182.992188 412.191406 182.992188 407.679688 C 182.992188 403.167969 186.652344 399.511719 191.164062 399.511719 L 250 399.511719 C 254.515625 399.511719 258.167969 403.167969 258.167969 407.679688 C 258.167969 412.191406 254.515625 415.847656 250 415.847656 Z M 191.164062 358.679688 L 284.03125 358.679688 C 288.550781 358.679688 292.203125 362.332031 292.203125 366.839844 C 292.203125 371.351562 288.550781 375.011719 284.03125 375.011719 L 191.164062 375.011719 C 186.652344 375.011719 182.992188 371.351562 182.992188 366.839844 C 182.992188 362.332031 186.652344 358.679688 191.164062 358.679688 Z M 342.875 142.902344 L 386.777344 142.902344 C 393.539062 142.902344 399.03125 148.382812 399.03125 155.152344 C 399.03125 161.917969 393.539062 167.40625 386.777344 167.40625 L 342.875 167.40625 C 336.105469 167.40625 330.621094 161.917969 330.621094 155.152344 C 330.621094 148.382812 336.105469 142.902344 342.875 142.902344 Z M 468.011719 98.683594 L 261.636719 98.683594 C 217.527344 98.683594 181.628906 134.574219 181.628906 178.691406 L 181.628906 304.449219 L 165.386719 304.449219 C 145.089844 304.449219 128.574219 320.964844 128.574219 341.261719 L 128.574219 436.324219 C 128.574219 456.621094 145.089844 473.136719 165.386719 473.136719 L 181.628906 473.136719 L 181.628906 595.832031 C 181.628906 639.945312 217.527344 675.835938 261.636719 675.835938 L 468.011719 675.835938 C 512.125 675.835938 548.015625 639.945312 548.015625 595.832031 L 548.015625 178.691406 C 548.015625 134.574219 512.125 98.683594 468.011719 98.683594 " fill-opacity="1" fill-rule="nonzero"/></g></svg>